<svg width="24" height="24" fill="none" xmlns="http://www.w3.org/2000/svg"><rect width="24" height="24" rx="4" fill="#fff"/><path fill="#669DF6" d="M0 0h24v24H0z"/><path fill-rule="evenodd" clip-rule="evenodd" d="M8.193 10.96v1.775c.28.482.676.886 1.154 1.175v-2.95H8.193Zm2.132-1.633v5.082c.249.032.5.045.75.04.225.014.45.014.675 0V9.328h-1.425v-.001Zm2.532 2.328v2.22c.48-.305.874-.728 1.147-1.228v-.992h-1.147Zm2.767 3.01-.959.959a.283.283 0 0 0 0 .405l2.39 2.39c.11.108.288.108.398 0l.965-.966a.283.283 0 0 0 0-.398l-2.39-2.39a.282.282 0 0 0-.404 0" fill="#fff"/><path fill-rule="evenodd" clip-rule="evenodd" d="M11.075 5a6.075 6.075 0 1 0 0 12.15 6.075 6.075 0 0 0 0-12.15Zm0 10.59a4.509 4.509 0 1 1-.12-9.017 4.509 4.509 0 0 1 .12 9.017" fill="#fff"/></svg>